<svg viewBox="0 0 512 512" xmlns="http://www.w3.org/2000/svg" role="img" aria-label="Fachi 學德語 图标">
  <defs>
    <linearGradient id="sky" x1="0" y1="0" x2="0" y2="1">
      <stop offset="0" stop-color="#e9f0f4"/>
      <stop offset="1" stop-color="#cfdbe6"/>
    </linearGradient>
  </defs>
  <g transform="scale(4.2667)">
    <rect width="120" height="120" fill="url(#sky)"/>
    <path d="M-5 74 Q28 54 66 70 T125 66 L125 120 L-5 120 Z" fill="#a6cd84"/>
    <path d="M-5 86 Q40 72 82 84 T125 82 L125 120 L-5 120 Z" fill="#7fb663"/>
    <path d="M16 120 L16 100 Q60 78 104 100 L104 120 Z" fill="#4a4a55"/>
    <rect x="52" y="76" width="16" height="16" rx="6" fill="#e7b487"/>
    <path d="M50 88 L60 101 L70 88 L70 120 L50 120 Z" fill="#3c3c47"/>
    <path d="M60 101 L51 89 L55 86 L60 95 L65 86 L69 89 Z" fill="#33333d"/>
    <path d="M50 84 L45 120 L53 120 L57 90 Z" fill="#cdd3db"/>
    <path d="M70 84 L75 120 L67 120 L63 90 Z" fill="#cdd3db"/>
    <ellipse cx="60" cy="56" rx="22" ry="24" fill="#f3c69e"/>
    <path d="M40 48 Q60 28 80 48 Q60 42 40 48 Z" fill="#e3b083" opacity="0.8"/>
    <circle cx="38" cy="58" r="4" fill="#e7b487"/>
    <circle cx="82" cy="58" r="4" fill="#e7b487"/>
    <path d="M47 48 Q50.5 46 54 48" fill="none" stroke="#7a5436" stroke-width="1.2" stroke-linecap="round"/>
    <path d="M66 48 Q69.5 46 73 48" fill="none" stroke="#7a5436" stroke-width="1.2" stroke-linecap="round"/>
    <g fill="none" stroke="#c9a23a" stroke-width="1.5">
      <rect x="43" y="52" width="14" height="11" rx="5"/>
      <rect x="63" y="52" width="14" height="11" rx="5"/>
      <path d="M57 57 L63 57"/>
      <path d="M43 56 L37 57"/><path d="M77 56 L83 57"/>
    </g>
    <path d="M47 59 Q50.5 56 54 59" fill="none" stroke="#5b3a22" stroke-width="1.5" stroke-linecap="round"/>
    <path d="M66 59 Q69.5 56 73 59" fill="none" stroke="#5b3a22" stroke-width="1.5" stroke-linecap="round"/>
    <circle cx="45" cy="67" r="3" fill="#f0a9a0" opacity="0.45"/>
    <circle cx="75" cy="67" r="3" fill="#f0a9a0" opacity="0.45"/>
    <path d="M51 68 Q60 79 69 68 Q60 72 51 68 Z" fill="#fff"/>
    <path d="M51 68 Q60 78 69 68" fill="none" stroke="#9a5b3a" stroke-width="1.4" stroke-linecap="round"/>
  </g>
</svg>
